<?xml version="1.0" encoding="UTF-8" standalone="no"?>
<!-- Generator: Gravit.io -->
<svg xmlns="http://www.w3.org/2000/svg" xmlns:xlink="http://www.w3.org/1999/xlink" style="isolation:isolate" viewBox="0 0 850 700" width="850pt" height="700pt"><defs><clipPath id="_clipPath_ZZEnrLEqPhC4D046eeyNE0y82hF89CnY"><rect width="850" height="700"/></clipPath></defs><g clip-path="url(#_clipPath_ZZEnrLEqPhC4D046eeyNE0y82hF89CnY)"><rect width="850" height="700" style="fill:rgb(0,0,0)" fill-opacity="0"/><path d=" M 400 600 L 400 500 L 137 500 C 116.579 500 100 483.421 100 463 L 100 112 C 100 91.579 116.579 75 137 75 L 137 75 L 713 75 C 733.421 75 750 91.579 750 112 L 750 463 C 750 483.421 733.421 500 713 500 L 450 500 L 450 500 L 450 600 L 575 600 L 575 625 L 275 625 L 275 600 L 400 600 Z  M 137 100 L 713 100 C 716.18 100 719.24 101.27 721.49 103.51 C 723.73 105.76 725 108.82 725 112 L 725 463 C 725 466.18 723.73 469.24 721.49 471.49 C 719.24 473.73 716.18 475 713 475 L 137 475 C 133.82 475 130.76 473.73 128.51 471.49 C 126.27 469.24 125 466.18 125 463 L 125 112 C 125 108.82 126.27 105.76 128.51 103.51 C 130.76 101.27 133.82 100 137 100 L 137 100 L 137 100 Z " fill-rule="evenodd" fill="rgb(242,155,26)"/><path d=" M 175 150 L 350 150 L 350 175 L 175 175 L 175 150 L 175 150 L 175 150 L 175 150 L 175 150 L 175 150 L 175 150 L 175 150 L 175 150 L 175 150 Z  M 225 200 L 400 200 L 400 225 L 225 225 L 225 200 L 225 200 L 225 200 L 225 200 L 225 200 L 225 200 L 225 200 L 225 200 L 225 200 L 225 200 Z  M 225 250 L 400 250 L 400 275 L 225 275 L 225 250 L 225 250 L 225 250 L 225 250 L 225 250 L 225 250 L 225 250 L 225 250 L 225 250 Z  M 275 300 L 450 300 L 450 325 L 275 325 L 275 300 L 275 300 L 275 300 L 275 300 L 275 300 L 275 300 L 275 300 L 275 300 Z  M 225 350 L 400 350 L 400 375 L 225 375 L 225 350 L 225 350 L 225 350 L 225 350 L 225 350 L 225 350 L 225 350 Z  M 175 400 L 350 400 L 350 425 L 175 425 L 175 400 L 175 400 L 175 400 L 175 400 L 175 400 L 175 400 Z  M 637.5 162.5 C 637.5 148.702 648.702 137.5 662.5 137.5 C 676.298 137.5 687.5 148.702 687.5 162.5 C 687.5 176.298 676.298 187.5 662.5 187.5 C 648.702 187.5 637.5 176.298 637.5 162.5 L 637.5 162.5 L 637.5 162.5 L 637.5 162.5 L 637.5 162.5 Z  M 637.5 225 C 637.5 211.202 648.702 200 662.5 200 C 676.298 200 687.5 211.202 687.5 225 C 687.5 238.798 676.298 250 662.5 250 C 648.702 250 637.5 238.798 637.5 225 L 637.5 225 L 637.5 225 L 637.5 225 Z  M 637.5 287.5 C 637.5 273.702 648.702 262.5 662.5 262.5 C 676.298 262.5 687.5 273.702 687.5 287.5 C 687.5 301.298 676.298 312.5 662.5 312.5 C 648.702 312.5 637.5 301.298 637.5 287.5 L 637.5 287.5 L 637.5 287.5 Z  M 637.5 350 C 637.5 336.202 648.702 325 662.5 325 C 676.298 325 687.5 336.202 687.5 350 C 687.5 363.798 676.298 375 662.5 375 C 648.702 375 637.5 363.798 637.5 350 L 637.5 350 Z  M 637.5 412.5 C 637.5 398.702 648.702 387.5 662.5 387.5 C 676.298 387.5 687.5 398.702 687.5 412.5 C 687.5 426.298 676.298 437.5 662.5 437.5 C 648.702 437.5 637.5 426.298 637.5 412.5 Z " fill-rule="evenodd" fill="rgb(118,242,21)"/></g></svg>